<svg t="1675603715602" class="icon" viewBox="0 0 1024 1024" version="1.1" xmlns="http://www.w3.org/2000/svg" p-id="2173" width="64" height="64"><path d="M782.062933 901.700267c10.922667 18.363733 4.778667 42.939733-14.301866 53.3504a38.5024 38.5024 0 0 1-53.0432-14.301867c-11.400533-18.363733-4.778667-42.461867 13.653333-53.3504a39.424 39.424 0 0 1 53.691733 14.267733z m-230.331733 83.217066C551.7312 1006.250667 534.1184 1024 512 1024c-21.265067 0-39.048533-17.408-39.048533-39.082667v-27.374933a39.424 39.424 0 0 1 78.7456 0v27.374933z m-241.152-44.168533a38.980267 38.980267 0 0 1-53.6576 14.506667 38.741333 38.741333 0 0 1-14.472533-53.6576l29.0816-50.858667a40.174933 40.174933 0 0 1 54.135466-14.506667c18.397867 10.888533 25.1904 35.157333 13.994667 53.6576l-29.0816 50.858667z m-187.153067-157.969067c-19.012267 10.581333-43.281067 4.1984-53.6576-14.506666a39.048533 39.048533 0 0 1 13.994667-53.6576l78.1312-45.2608c18.670933-10.410667 42.973867-4.5056 53.6576 14.472533 10.581333 18.397867 4.096 42.769067-14.472533 53.6576l-77.653334 45.294933zM40.277333 551.8336a39.0144 39.0144 0 0 1-39.082666-39.082667c0-21.777067 17.3056-39.389867 39.082666-39.389866h121.719467c21.777067 0 39.082667 17.6128 39.082667 39.082666 0 21.777067-17.3056 39.389867-39.082667 39.389867H40.277333zM83.831467 310.272a38.2976 38.2976 0 0 1-13.994667-53.3504c10.410667-18.978133 34.577067-25.3952 53.691733-14.472533l132.3008 76.834133c18.670933 10.683733 24.8832 34.577067 14.472534 53.077333a39.389867 39.389867 0 0 1-53.5552 14.472534L83.831467 310.272z m158.6176-187.050667l92.125866 159.982934c11.195733 18.705067 35.157333 25.3952 53.8624 14.301866 18.670933-10.581333 24.8832-34.884267 13.994667-53.6576L309.896533 84.138667a38.8096 38.8096 0 0 0-53.077333-14.301867 39.0144 39.0144 0 0 0-14.370133 53.384533z m230.638933-82.6368c0-21.2992 17.885867-39.389867 39.048533-39.389866 21.8112 0 39.697067 17.681067 39.697067 39.389866v184.251734c0 21.8112-17.6128 39.389867-39.697067 39.697066a39.253333 39.253333 0 0 1-39.048533-39.697066V40.618667z m241.117867 43.554134a39.355733 39.355733 0 0 1 53.6576-14.472534c19.012267 10.581333 25.7024 34.577067 14.506666 53.6576L690.039467 283.306667a39.355733 39.355733 0 0 1-53.6576 14.472533 39.936 39.936 0 0 1-14.336-53.930667l92.16-159.709866z m187.665066 158.3104L741.717333 334.779733a39.424 39.424 0 0 0-14.472533 53.6576 40.277333 40.277333 0 0 0 53.6576 14.301867l160.290133-92.3648c18.397867-10.581333 25.1904-34.577067 13.994667-53.3504-10.786133-18.978133-34.884267-25.770667-53.248-14.574933z m82.363734 230.912c21.981867 0 39.355733 17.6128 39.048533 39.389866 0 21.504-16.964267 39.082667-39.048533 39.082667H799.744a39.458133 39.458133 0 0 1-39.150933-39.389867c0-21.504 17.885867-39.082667 39.150933-39.082666h184.490667z" p-id="2174" fill="#ffffff"></path></svg>
