<?xml version="1.0" encoding="UTF-8"?>
<svg width="88px" height="88px" viewBox="0 0 88 88" version="1.1" xmlns="http://www.w3.org/2000/svg" xmlns:xlink="http://www.w3.org/1999/xlink">
    <!-- Generator: Sketch 57 (83077) - https://sketch.com -->
    <desc>Created with Sketch.</desc>
    <g id="Liquidity" stroke="none" stroke-width="1" fill="none" fill-rule="evenodd">
        <g id="LightSwap-Remove-Liquidity-Reject" transform="translate(-676.000000, -474.000000)">
            <g id="编组-15" transform="translate(470.000000, 394.000000)">
                <g id="警告" transform="translate(206.000000, 80.000000)">
                    <rect id="矩形" stroke="#979797" fill="#D8D8D8" opacity="0" x="0.5" y="0.5" width="87" height="87"></rect>
                    <g id="编组-13" transform="translate(3.000000, 3.000000)" stroke-width="2">
                        <path d="M45,2.30940108 L72.5070416,18.1905989 C74.9822502,19.6196613 76.5070416,22.2606774 76.5070416,25.1188022 L76.5070416,56.8811978 C76.5070416,59.7393226 74.9822502,62.3803387 72.5070416,63.8094011 L45,79.6905989 C42.5247914,81.1196613 39.4752086,81.1196613 37,79.6905989 L9.49295844,63.8094011 C7.01774983,62.3803387 5.49295844,59.7393226 5.49295844,56.8811978 L5.49295844,25.1188022 C5.49295844,22.2606774 7.01774983,19.6196613 9.49295844,18.1905989 L37,2.30940108 C39.4752086,0.880338717 42.5247914,0.880338717 45,2.30940108 Z" id="多边形" stroke="#FFFFFF"></path>
                        <g id="编组-11" transform="translate(41.000000, 23.000000)" stroke="#E4C989" stroke-linecap="round" stroke-linejoin="round">
                            <path d="M0.5,-7.10542736e-15 L0.5,29.2919132" id="路径-2"></path>
                            <path d="M0.5,35.8393698 L0.5,36.8348719" id="路径-3"></path>
                        </g>
                    </g>
                </g>
            </g>
        </g>
    </g>
</svg>
