<?xml version="1.0" encoding="UTF-8"?>
<svg width="17px" height="16px" viewBox="0 0 17 16" version="1.1" xmlns="http://www.w3.org/2000/svg" xmlns:xlink="http://www.w3.org/1999/xlink">
    <!-- Generator: Sketch 57 (83077) - https://sketch.com -->
    <title>分享</title>
    <desc>Created with Sketch.</desc>
    <g id="Pools" stroke="none" stroke-width="1" fill="none" fill-rule="evenodd">
        <g id="Light-pools" transform="translate(-288.000000, -868.000000)" fill-rule="nonzero">
            <g id="分享" transform="translate(288.000000, 868.000000)">
                <rect id="矩形" fill="#000000" opacity="0" x="0" y="0" width="17" height="16"></rect>
                <path d="M14.1666667,8.33333333 C14.1666667,8.05719095 14.4045154,7.83333333 14.6979167,7.83333333 C14.9913179,7.83333333 15.2291667,8.05719095 15.2291667,8.33333333 L15.2291667,12.5 C15.2291667,13.5125 14.3570312,14.3333333 13.28125,14.3333333 L3.71875,14.3333333 C2.64296875,14.3333333 1.77083334,13.5125 1.77083334,12.5 L1.77083334,4 C1.77083334,2.9875 2.64296875,2.16666667 3.71875,2.16666667 L8.32291666,2.16666667 C8.61631793,2.16666667 8.85416666,2.3905243 8.85416666,2.66666667 C8.85416666,2.94280905 8.61631793,3.16666667 8.32291666,3.16666667 L3.71875,3.16666667 C3.22974788,3.16666667 2.83333334,3.53976271 2.83333334,4 L2.83333334,12.5 C2.83333334,12.9602373 3.22974788,13.3333333 3.71875,13.3333333 L13.28125,13.3333333 C13.7702521,13.3333333 14.1666667,12.9602373 14.1666667,12.5 L14.1666667,8.33333333 Z M13.4684271,4 L11.9777396,2.50933333 C11.7766619,2.30820963 11.7868894,1.99174958 12.0005834,1.80250002 C12.2142773,1.61325045 12.5505161,1.62287632 12.7515937,1.824 L15.0848437,4.15733333 C15.4039479,4.47633333 15.1634687,5 14.6979167,5 L12.0312188,5 C10.6752917,5 9.5625,6.11266667 9.5625,7.5 L9.5625,10.5 C9.5625,10.7761424 9.32465127,11 9.03125,11 C8.73784873,11 8.5,10.7761424 8.5,10.5 L8.5,7.5 C8.5,5.5735 10.0735625,4 12.0312188,4 L13.4684271,4 L13.4684271,4 Z" id="形状" fill="#FFFFFF"></path>
            </g>
        </g>
    </g>
</svg>