<?xml version="1.0" encoding="UTF-8"?>
<svg width="30px" height="30px" viewBox="0 0 30 30" version="1.1" xmlns="http://www.w3.org/2000/svg" xmlns:xlink="http://www.w3.org/1999/xlink">
    <title>编组_7</title>
    <g id="Swap" stroke="none" stroke-width="1" fill="none" fill-rule="evenodd" opacity="0.602594285">
        <g id="LightSwap-Approve" transform="translate(-35.000000, -871.000000)">
            <g id="编组_7" transform="translate(35.000000, 871.000000)">
                <circle id="椭圆形备份-5" fill="#4E4E4E" cx="15" cy="15" r="15"></circle>
                <g id="email" transform="translate(7.058824, 8.823529)" fill="#FFFFFF" fill-rule="nonzero">
                    <path d="M7.58531854,7.63591613 C7.78365403,7.83425162 8.08115726,7.83425162 8.27949273,7.63591613 L15.7501293,0.69417419 C15.8823529,0.429726881 15.849297,0 15.3204024,0 L0.544408864,0.0330559178 C0.147737901,0.0330559178 -0.182821244,0.396670964 0.114681983,0.727230108 L7.58531854,7.63591613 Z M15.8823529,3.40475913 C15.8823529,3.07419999 15.485682,2.87586452 15.2212347,3.10725591 L9.37033788,8.49536989 C8.97366692,8.85898494 8.4778282,9.05732043 7.94893359,9.05732043 C7.42003897,9.05732043 6.92420025,8.85898494 6.52752929,8.52842579 L0.709688437,3.10725591 C0.445241128,2.87586452 0.048570164,3.04114407 0.0485701472,3.40475913 C0.0155142293,3.3055914 0.0155142293,10.9084516 0.0155142293,10.9084516 C0.0155142293,11.6356817 0.610520683,12.2306882 1.33775079,12.2306882 L14.5601164,12.2306882 C15.2873465,12.2306882 15.8823529,11.6356817 15.8823529,10.9084516 L15.8823529,3.40475913 Z" id="形状"></path>
                </g>
            </g>
        </g>
    </g>
</svg>