<?xml version="1.0" encoding="UTF-8"?>
<svg width="30px" height="30px" viewBox="0 0 30 30" version="1.1" xmlns="http://www.w3.org/2000/svg" xmlns:xlink="http://www.w3.org/1999/xlink">
    <title>编组_3</title>
    <g id="Swap" stroke="none" stroke-width="1" fill="none" fill-rule="evenodd" opacity="0.602594285">
        <g id="LightSwap-Approve" transform="translate(-35.000000, -831.000000)">
            <g id="编组_3" transform="translate(35.000000, 831.000000)">
                <circle id="椭圆形备份-7" fill="#4E4E4E" cx="15" cy="15" r="15"></circle>
                <g id="discord" transform="translate(7.058824, 7.058824)" fill="#FFFFFF" fill-rule="nonzero">
                    <path d="M9.6144958,7.60084034 C9.1039916,7.60084034 8.67857143,8.05462185 8.67857143,8.62184874 C8.67857143,9.18907563 9.1039916,9.64285714 9.6144958,9.64285714 C10.125,9.64285714 10.5504202,9.18907563 10.5504202,8.62184874 C10.5504202,8.05462185 10.125,7.60084034 9.6144958,7.60084034 L9.6144958,7.60084034 Z M6.29621849,7.60084034 C5.78571429,7.60084034 5.36029412,8.05462185 5.36029412,8.62184874 C5.36029412,9.18907563 5.78571429,9.64285714 6.29621849,9.64285714 C6.80672269,9.64285714 7.23214286,9.18907563 7.23214286,8.62184874 C7.23214286,8.05462185 6.80672269,7.60084034 6.29621849,7.60084034 L6.29621849,7.60084034 Z M14.0105042,0 L1.87184874,0 C0.822478992,0 0,0.822478992 0,1.87184874 L0,14.1523109 C0,15.1733193 0.822478992,16.0241597 1.87184874,16.0241597 L12.1670168,16.0241597 L11.6848739,14.3508403 L12.8476891,15.4285714 L13.9537815,16.4495798 L15.8823529,18.1512605 L15.8823529,1.87184874 C15.8823529,0.822478992 15.0598739,0 14.0105042,0 Z M10.5220588,11.855042 C10.5220588,11.855042 10.1817227,11.4579832 9.92647059,11.1176471 C11.1176471,10.7773109 11.5714286,10.039916 11.5714286,10.039916 C11.2027311,10.2951681 10.8340336,10.4653361 10.5220588,10.5787815 C10.0682773,10.7773109 9.64285714,10.8907563 9.21743697,10.9758403 C8.33823529,11.1460084 7.54411765,11.0892857 6.86344538,10.9758403 C6.35294118,10.862395 5.89915966,10.7205882 5.53046218,10.5787815 C5.33193277,10.4936975 5.10504202,10.4086134 4.87815126,10.2668067 C4.84978992,10.2384454 4.82142857,10.2384454 4.79306723,10.210084 C4.76470588,10.210084 4.76470588,10.1817227 4.76470588,10.1817227 C4.59453782,10.0966387 4.50945378,10.039916 4.50945378,10.039916 C4.50945378,10.039916 4.93487395,10.7773109 6.09768908,11.1176471 C5.81407563,11.4579832 5.50210084,11.8834034 5.50210084,11.8834034 C3.48844538,11.8266807 2.72268908,10.4936975 2.72268908,10.4936975 C2.72268908,7.57247899 4.02731092,5.19012605 4.02731092,5.19012605 C5.33193277,4.19747899 6.57983193,4.22584034 6.57983193,4.22584034 L6.66491597,4.33928571 C5.01995798,4.82142857 4.25420168,5.53046218 4.25420168,5.53046218 C4.25420168,5.53046218 4.45273109,5.41701681 4.79306723,5.27521008 C5.75735294,4.84978992 6.52310924,4.73634454 6.86344538,4.70798319 C6.92016807,4.70798319 6.97689076,4.67962185 7.0052521,4.67962185 C7.57247899,4.59453782 8.19642857,4.59453782 8.8487395,4.6512605 C9.69957983,4.76470588 10.6355042,4.99159664 11.5714286,5.53046218 C11.5714286,5.53046218 10.862395,4.84978992 9.30252101,4.36764706 L9.41596639,4.22584034 C9.41596639,4.22584034 10.6638655,4.19747899 11.9684874,5.19012605 C11.9684874,5.19012605 13.2731092,7.57247899 13.2731092,10.4936975 C13.3014706,10.4653361 12.5357143,11.7983193 10.5220588,11.855042 L10.5220588,11.855042 Z" id="形状"></path>
                </g>
            </g>
        </g>
    </g>
</svg>