<?xml version="1.0" encoding="UTF-8"?>
<svg width="30px" height="30px" viewBox="0 0 30 30" version="1.1" xmlns="http://www.w3.org/2000/svg" xmlns:xlink="http://www.w3.org/1999/xlink">
    <title>Medium</title>
    <defs>
        <polygon id="path-1" points="0 0 12.6997119 0 12.6997119 12.6996944 0 12.6996944"></polygon>
    </defs>
    <g id="Swap" stroke="none" stroke-width="1" fill="none" fill-rule="evenodd" opacity="0.602594285">
        <g id="LightSwap-Approve" transform="translate(-35.000000, -751.000000)">
            <g id="编组_5" transform="translate(35.000000, 751.000000)">
                <circle id="椭圆形备份-3" fill="#4E4E4E" cx="15" cy="15" r="15"></circle>
                <g id="编组" transform="translate(3.529412, 8.823529)">
                    <g>
                        <mask id="mask-2" fill="white">
                            <use xlink:href="#path-1"></use>
                        </mask>
                        <g id="Clip-2"></g>
                        <path d="M12.6997119,6.34982087 C12.6997119,9.85679051 9.85677297,12.6997295 6.34989104,12.6997295 C2.8429214,12.6997295 -1.75414265e-05,9.85679051 -1.75414265e-05,6.34982087 C-1.75414265e-05,2.84293895 2.8429214,1.0658141e-13 6.34989104,1.0658141e-13 C9.85677297,1.0658141e-13 12.6997119,2.84293895 12.6997119,6.34982087" id="Fill-1" fill="#FFFFFF" mask="url(#mask-2)"></path>
                    </g>
                    <path d="M19.5304222,6.34982087 C19.5304222,9.66129131 18.1199161,12.3458312 16.3798944,12.3458312 C14.6399603,12.3458312 13.2294542,9.66129131 13.2294542,6.34982087 C13.2294542,3.03835043 14.6399603,0.353810567 16.3798944,0.353810567 C18.1199161,0.353810567 19.5304222,3.03835043 19.5304222,6.34982087" id="Fill-3" fill="#FFFFFF"></path>
                    <path d="M22.3991471,6.34982087 C22.3991471,9.30493724 21.8970237,11.7005698 21.2777237,11.7005698 C20.6583359,11.7005698 20.1563003,9.30493724 20.1563003,6.34982087 C20.1563003,3.39470451 20.6583359,0.99907193 21.2777237,0.99907193 C21.8970237,0.99907193 22.3991471,3.39470451 22.3991471,6.34982087" id="Fill-5" fill="#FFFFFF"></path>
                </g>
            </g>
        </g>
    </g>
</svg>