<?xml version="1.0" encoding="UTF-8"?>
<svg width="30px" height="30px" viewBox="0 0 30 30" version="1.1" xmlns="http://www.w3.org/2000/svg" xmlns:xlink="http://www.w3.org/1999/xlink">
    <title>编组_2</title>
    <g id="Swap" stroke="none" stroke-width="1" fill="none" fill-rule="evenodd" opacity="0.602594285">
        <g id="LightSwap-Approve" transform="translate(-35.000000, -711.000000)">
            <g id="编组_2" transform="translate(35.000000, 711.000000)">
                <circle id="椭圆形备份-6" fill="#4E4E4E" cx="15" cy="15" r="15"></circle>
                <g id="twitter" transform="translate(6.176471, 7.941176)" fill="#FFFFFF" fill-rule="nonzero">
                    <path d="M17.6470588,1.70299101 C16.9980984,1.98293474 16.2918767,2.1844094 15.5644471,2.26287847 C16.3152053,1.81539266 16.8856967,1.10917098 17.1550365,0.269339799 C16.4615395,0.682893035 15.6768488,0.986165407 14.8603463,1.14310356 C14.1986611,0.436881879 13.259153,0 12.2178471,0 C10.2137045,0 8.60190729,1.62452194 8.60190729,3.61806061 C8.60190729,3.89800434 8.63583987,4.17794807 8.6909803,4.44728787 C5.69006836,4.29034972 3.01363665,2.8566985 1.23429735,0.661685176 C0.920421047,1.20036478 0.742275038,1.81539266 0.742275038,2.48768177 C0.742275038,3.74318698 1.38063157,4.85023717 2.35407226,5.50131842 C1.76025223,5.47798978 1.20036478,5.3104477 0.718946394,5.0411079 L0.718946394,5.0856444 C0.718946394,6.84377585 1.96172689,8.30075571 3.61806061,8.63583987 C3.31478824,8.71430894 2.99030801,8.75884544 2.66582778,8.75884544 C2.43042055,8.75884544 2.20773804,8.7355168 1.98293474,8.70370501 C2.44102448,10.1373562 3.77499876,11.1786621 5.36346734,11.2125946 C4.12068685,12.1860353 2.56403006,12.7586475 0.873763759,12.7586475 C0.570491386,12.7586475 0.290547658,12.7480436 0,12.714111 C1.60331408,13.7426921 3.50565896,14.3365122 5.55433807,14.3365122 C12.2051224,14.3365122 15.8443909,8.82671059 15.8443909,4.04433856 C15.8443909,3.88740041 15.8443909,3.73046226 15.8337869,3.57352411 C16.5378878,3.05817316 17.1550365,2.41981662 17.6470588,1.70299101 Z" id="路径"></path>
                </g>
            </g>
        </g>
    </g>
</svg>