<?xml version="1.0" encoding="UTF-8"?>
<svg width="30px" height="30px" viewBox="0 0 30 30" version="1.1" xmlns="http://www.w3.org/2000/svg" xmlns:xlink="http://www.w3.org/1999/xlink">
    <!-- Generator: Sketch 57 (83077) - https://sketch.com -->
    <desc>Spinner</desc>
    <g id="Liquidity" stroke="none" stroke-width="1" fill="none" fill-rule="evenodd">
        <g id="LightSwap-Add-New-Liquidity-Fetching-Prices" transform="translate(-755.000000, -733.000000)" fill-rule="nonzero">
            <g id="页面加载" transform="translate(755.000000, 733.000000)">
                <rect id="矩形" fill="#000000" opacity="0" x="0" y="0" width="30" height="30"></rect>
                <path d="M22.9120605,26.4165234 C23.2311914,26.9552051 23.0525977,27.6754102 22.4934082,27.9798926 C21.9459375,28.2990234 21.2491699,28.1116406 20.9387988,27.5612402 C20.6050488,27.0225293 20.798291,26.3169727 21.3399023,25.9978418 C21.9078809,25.6816699 22.5929297,25.8748828 22.9120605,26.4164941 L22.9120605,26.4165234 Z M16.1637598,28.8552832 C16.1637598,29.4788672 15.6484863,30 15.0014648,30 C14.3778809,30 13.856748,29.4905859 13.856748,28.8552832 L13.856748,28.0530762 C13.856748,27.4148438 14.3807813,26.9054297 15.0014648,26.9054297 C15.6396973,26.9054297 16.1637598,27.4148438 16.1637598,28.0530762 L16.1637598,28.8552832 Z M9.09925781,27.5612402 C8.77426758,28.1262891 8.06871094,28.3048828 7.52707031,27.985752 C6.97081055,27.6724805 6.77466797,26.9727832 7.10255859,26.4135937 L7.95451172,24.9233789 C8.28243164,24.3759082 8.98505859,24.185625 9.54131836,24.4988672 C10.0800293,24.817998 10.2791016,25.5294141 9.95118164,26.0710547 L9.09922852,27.5612402 L9.09925781,27.5612402 Z M3.61570312,22.9325684 C3.05944336,23.2429102 2.34802734,23.0555273 2.04351562,22.5080566 C1.71855469,21.9693457 1.90300781,21.2550293 2.45337891,20.9358691 L4.7428418,19.6096289 C5.2903418,19.3051758 6.00175781,19.4779102 6.3150293,20.0341406 C6.6253418,20.5728516 6.43505859,21.2871973 5.89051758,21.6063281 L3.61570312,22.9325684 Z M1.17984375,16.1666895 C0.541611328,16.1666895 0.0351269531,15.651416 0.0351269531,15.0219434 C0.0351269531,14.3837109 0.541611328,13.8684375 1.17984375,13.8684375 L4.74580078,13.8684375 C5.3840332,13.8684375 5.89054687,14.3837109 5.89054687,15.0131836 C5.89054687,15.651416 5.3840332,16.1666895 4.74580078,16.1666895 L1.17984375,16.1666895 L1.17984375,16.1666895 Z M2.45630859,9.09046875 C1.90007812,8.78012695 1.71855469,8.0775 2.04644531,7.52707031 C2.35092773,6.97081055 3.05944336,6.78345703 3.61863281,7.10255859 L7.49490234,9.35396484 C8.04234375,9.66720703 8.22386719,10.3669336 7.91941406,10.9085449 C7.59442383,11.4648047 6.88883789,11.6433984 6.35015625,11.3330566 L2.45630859,9.09046875 Z M7.10255859,3.60984375 L9.80188477,8.29705078 C10.1298047,8.84455078 10.8324316,9.04069336 11.3799023,8.71570313 C11.9274023,8.40539063 12.1088965,7.69394531 11.7897656,7.14354492 L9.07875,2.46512695 C8.7684082,1.92348633 8.06578125,1.72734375 7.52414062,2.04647461 C6.96788086,2.36557617 6.78931641,3.07113281 7.10255859,3.60984375 Z M13.8596777,1.18863281 C13.8596777,0.565048828 14.3837109,0.0351269531 15.0043945,0.0351269531 C15.642627,0.0351269531 16.1666895,0.553330078 16.1666895,1.18863281 L16.1666895,6.58728516 C16.1666895,7.22551758 15.651416,7.74079102 15.0043945,7.74958008 C14.3807812,7.74958008 13.8596777,7.2430957 13.8596777,6.58728516 L13.8596777,1.18863281 Z M20.9241797,2.46509766 C21.2520703,1.90883789 21.9459375,1.72734375 22.4963379,2.04058594 C23.0525977,2.35092773 23.2487695,3.05358398 22.9208496,3.61277344 L20.2156641,8.29998047 C19.9111816,8.84748047 19.1909766,9.04069336 18.6435059,8.72449219 C18.0960352,8.40539063 17.9145117,7.69394531 18.2248535,7.14354492 L20.9241797,2.46512695 L20.9241797,2.46509766 Z M26.4223535,7.10255859 L21.7292871,9.80774414 C21.1818164,10.1180859 20.9915039,10.8207422 21.3047754,11.3799023 C21.6297363,11.9186133 22.3353223,12.1001367 22.8769336,11.7985547 L27.5729297,9.09339844 C28.1116406,8.78305664 28.3107129,8.08040039 27.9828223,7.53 C27.6666211,6.97374023 26.9610645,6.77466797 26.4223535,7.10255859 L26.4223535,7.10255859 Z M28.8347754,13.8684375 C29.4788672,13.8684375 29.9882813,14.3837109 29.9794922,15.0219434 C29.9794922,15.651416 29.4817969,16.1666895 28.8347754,16.1666895 L23.4302637,16.1666895 C22.8066797,16.1666895 22.2826172,15.651416 22.2826172,15.0131836 C22.2826172,14.3837109 22.8066797,13.8684375 23.4302637,13.8684375 L28.8347754,13.8684375 L28.8347754,13.8684375 Z" id="形状" fill="#A8A8AA"></path>
            </g>
        </g>
    </g>
</svg>
